# xmcd
#
# Track frame offsets:
#	182
#	13445
#	25190
#	50210
#	61702
#	86040
#	108322
#
# Disc length: 1710 seconds
#
# Revision: 2
# Processed by: cddbd v1.5.2PL0 Copyright (c) Steve Scherf et al.
# Submitted via: audiograbber 1.83.01
#
DISCID=5906ac07
DTITLE=Eric Clapton and The Yardbirds - Eric Clapton and The Yardbirds Live
DYEAR=1991
DGENRE=Blues
TTITLE0=Too Much Monkey Business
TTITLE1=Good Morning Little Schoolgirl
TTITLE2=Smokestack Lightning
TTITLE3=Got Love If You Want It
TTITLE4=She's So Respectable
TTITLE5=Her 'Tis
TTITLE6=Five Long Years
EXTD=
EXTT0=
EXTT1=
EXTT2=
EXTT3=
EXTT4=
EXTT5=
EXTT6=
PLAYORDER=
